<svg width="22" height="21" viewBox="0 0 22 21" fill="none" xmlns="http://www.w3.org/2000/svg">
<path fill-rule="evenodd" clip-rule="evenodd" d="M11 0.894531C5.41702 0.894531 0.894775 5.42298 0.894775 10.9998C0.894775 15.4662 3.79174 19.2503 7.80531 20.5902C8.30778 20.6832 8.49388 20.3731 8.49388 20.1001C8.49388 19.8582 8.48768 19.2254 8.48148 18.3818C5.67136 18.9897 5.07584 17.0295 5.07584 17.0295C4.61679 15.8632 3.95303 15.5531 3.95303 15.5531C3.03493 14.9265 4.02127 14.9389 4.02127 14.9389C5.03241 15.0134 5.5721 15.9811 5.5721 15.9811C6.47159 17.5257 7.93558 17.0791 8.51249 16.8185C8.60554 16.1672 8.86608 15.7205 9.15144 15.4662C6.90582 15.2119 4.54855 14.3434 4.54855 10.4725C4.54855 9.36831 4.93936 8.46883 5.59071 7.76164C5.48526 7.50731 5.13787 6.47755 5.68997 5.088C5.68997 5.088 6.53983 4.81505 8.46907 6.12396C9.27551 5.90064 10.1378 5.78898 11 5.78277C11.8561 5.78898 12.7246 5.90064 13.531 6.12396C15.4602 4.81505 16.3101 5.088 16.3101 5.088C16.8622 6.47755 16.5148 7.50731 16.4094 7.76164C17.0545 8.46883 17.4453 9.36831 17.4453 10.4725C17.4453 14.3558 15.0818 15.2057 12.83 15.46C13.1898 15.7702 13.5186 16.3905 13.5186 17.3334C13.5186 18.6857 13.5062 19.7713 13.5062 20.1063C13.5062 20.3793 13.6861 20.6894 14.201 20.5902C18.2145 19.2503 21.1053 15.4662 21.1053 11.006C21.1053 5.42298 16.5831 0.894531 11 0.894531Z" fill="#191717"/>
</svg>
