<svg width="102" height="116" viewBox="0 0 102 116" fill="none" xmlns="http://www.w3.org/2000/svg">
<path d="M92.8295 84.8021L52.6847 107.513V89.8284L77.6979 76.0652L92.8295 84.8021ZM95.5795 82.3152V34.8284L80.8952 43.3152V73.8415L95.5795 82.3152ZM9.01367 84.8021L49.1584 107.513V89.8284L24.1321 76.0652L9.01367 84.8021ZM6.26367 82.3152V34.8284L20.9479 43.3152V73.8415L6.26367 82.3152ZM7.98736 31.7494L49.1584 8.45996V25.5521L22.7768 40.0652L22.5663 40.1836L7.98736 31.7494ZM93.8558 31.7494L52.6847 8.45996V25.5521L79.0663 40.0521L79.2768 40.1705L93.8558 31.7494Z" fill="#D1D2D6"/>
<path d="M49.1574 85.8019L24.4731 72.2229V45.3414L49.1574 59.5914V85.8019ZM52.6837 85.8019L77.3679 72.2361V45.3414L52.6837 59.5914V85.8019ZM26.1442 42.2361L50.9205 28.6177L75.6968 42.2361L50.9205 56.5387L26.1442 42.2361Z" fill="#D1D2D6"/>
</svg>
